{
    "asset" : {
        "generator" : "Khronos glTF Blender I/O v3.3.32",
        "version" : "2.0"
    },
    "extensionsUsed" : [
        "KHR_materials_unlit"
    ],
    "scene" : 0,
    "scenes" : [
        {
            "name" : "Scene",
            "nodes" : [
                0,
                1,
                2,
                3,
                4
            ]
        }
    ],
    "nodes" : [
        {
            "name" : "NurbsPath",
            "scale" : [
                0.09356075525283813,
                0.09356075525283813,
                0.09356075525283813
            ],
            "translation" : [
                0,
                0.009959262795746326,
                8.443494880339131e-05
            ]
        },
        {
            "mesh" : 0,
            "name" : "Cube",
            "rotation" : [
                0,
                1,
                0,
                0
            ],
            "scale" : [
                -0.004461328499019146,
                -0.0006365613080561161,
                -0.004461328499019146
            ],
            "translation" : [
                0,
                0.009959262795746326,
                8.443494880339131e-05
            ]
        },
        {
            "mesh" : 1,
            "name" : "Cube.001",
            "scale" : [
                -0.001230953843332827,
                -0.0031144090462476015,
                -0.001230953843332827
            ],
            "translation" : [
                0,
                0.012529198080301285,
                -0.0056320056319236755
            ]
        },
        {
            "name" : "NurbsPath.001",
            "scale" : [
                0.09356075525283813,
                0.09356075525283813,
                0.09356075525283813
            ],
            "translation" : [
                0,
                0.009959262795746326,
                8.443494880339131e-05
            ]
        },
        {
            "mesh" : 2,
            "name" : "Cube.003",
            "scale" : [
                -0.001230953843332827,
                -0.0031144090462476015,
                -0.001230953843332827
            ],
            "translation" : [
                0,
                0.012529198080301285,
                0.005844447761774063
            ]
        }
    ],
    "materials" : [
        {
            "doubleSided" : true,
            "extensions" : {
                "KHR_materials_unlit" : {}
            },
            "name" : "Material.002",
            "pbrMetallicRoughness" : {
                "baseColorFactor" : [
                    0.800000011920929,
                    0.800000011920929,
                    0.800000011920929,
                    1
                ],
                "metallicFactor" : 0,
                "roughnessFactor" : 0.9
            }
        },
        {
            "doubleSided" : true,
            "name" : "Material.001",
            "pbrMetallicRoughness" : {
                "baseColorFactor" : [
                    0.7655271887779236,
                    0.8000000715255737,
                    0,
                    1
                ],
                "metallicFactor" : 0,
                "roughnessFactor" : 0.4000000059604645
            }
        },
        {
            "doubleSided" : true,
            "name" : "Material.003",
            "pbrMetallicRoughness" : {
                "baseColorFactor" : [
                    0.8000000715255737,
                    0.7951796650886536,
                    0,
                    1
                ],
                "metallicFactor" : 0,
                "roughnessFactor" : 0.4000000059604645
            }
        }
    ],
    "meshes" : [
        {
            "name" : "Cube.001",
            "primitives" : [
                {
                    "attributes" : {
                        "POSITION" : 0,
                        "NORMAL" : 1,
                        "TEXCOORD_0" : 2
                    },
                    "indices" : 3,
                    "material" : 0
                }
            ]
        },
        {
            "name" : "Cube.002",
            "primitives" : [
                {
                    "attributes" : {
                        "POSITION" : 4,
                        "NORMAL" : 5,
                        "TEXCOORD_0" : 6
                    },
                    "indices" : 7,
                    "material" : 1
                }
            ]
        },
        {
            "name" : "Cube.006",
            "primitives" : [
                {
                    "attributes" : {
                        "POSITION" : 8,
                        "NORMAL" : 9,
                        "TEXCOORD_0" : 10
                    },
                    "indices" : 11,
                    "material" : 2
                }
            ]
        }
    ],
    "accessors" : [
        {
            "bufferView" : 0,
            "componentType" : 5126,
            "count" : 6024,
            "max" : [
                82.33048248291016,
                1.0000048875808716,
                1.1118425130844116
            ],
            "min" : [
                -82.85588836669922,
                -1.0000046491622925,
                -104.292724609375
            ],
            "type" : "VEC3"
        },
        {
            "bufferView" : 1,
            "componentType" : 5126,
            "count" : 6024,
            "type" : "VEC3"
        },
        {
            "bufferView" : 2,
            "componentType" : 5126,
            "count" : 6024,
            "type" : "VEC2"
        },
        {
            "bufferView" : 3,
            "componentType" : 5123,
            "count" : 9036,
            "type" : "SCALAR"
        },
        {
            "bufferView" : 4,
            "componentType" : 5126,
            "count" : 29024,
            "max" : [
                293.03753662109375,
                0.9999998807907104,
                366.1162414550781
            ],
            "min" : [
                -291.1282653808594,
                -1.0000020265579224,
                -1.4053502082824707
            ],
            "type" : "VEC3"
        },
        {
            "bufferView" : 5,
            "componentType" : 5126,
            "count" : 29024,
            "type" : "VEC3"
        },
        {
            "bufferView" : 6,
            "componentType" : 5126,
            "count" : 29024,
            "type" : "VEC2"
        },
        {
            "bufferView" : 7,
            "componentType" : 5123,
            "count" : 48978,
            "type" : "SCALAR"
        },
        {
            "bufferView" : 8,
            "componentType" : 5126,
            "count" : 29024,
            "max" : [
                302.3598937988281,
                1.0000015497207642,
                384.7626647949219
            ],
            "min" : [
                -300.44940185546875,
                -1.0000003576278687,
                -1.405350685119629
            ],
            "type" : "VEC3"
        },
        {
            "bufferView" : 9,
            "componentType" : 5126,
            "count" : 29024,
            "type" : "VEC3"
        },
        {
            "bufferView" : 10,
            "componentType" : 5126,
            "count" : 29024,
            "type" : "VEC2"
        },
        {
            "bufferView" : 11,
            "componentType" : 5123,
            "count" : 48978,
            "type" : "SCALAR"
        }
    ],
    "bufferViews" : [
        {
            "buffer" : 0,
            "byteLength" : 72288,
            "byteOffset" : 0,
            "target" : 34962
        },
        {
            "buffer" : 0,
            "byteLength" : 72288,
            "byteOffset" : 72288,
            "target" : 34962
        },
        {
            "buffer" : 0,
            "byteLength" : 48192,
            "byteOffset" : 144576,
            "target" : 34962
        },
        {
            "buffer" : 0,
            "byteLength" : 18072,
            "byteOffset" : 192768,
            "target" : 34963
        },
        {
            "buffer" : 0,
            "byteLength" : 348288,
            "byteOffset" : 210840,
            "target" : 34962
        },
        {
            "buffer" : 0,
            "byteLength" : 348288,
            "byteOffset" : 559128,
            "target" : 34962
        },
        {
            "buffer" : 0,
            "byteLength" : 232192,
            "byteOffset" : 907416,
            "target" : 34962
        },
        {
            "buffer" : 0,
            "byteLength" : 97956,
            "byteOffset" : 1139608,
            "target" : 34963
        },
        {
            "buffer" : 0,
            "byteLength" : 348288,
            "byteOffset" : 1237564,
            "target" : 34962
        },
        {
            "buffer" : 0,
            "byteLength" : 348288,
            "byteOffset" : 1585852,
            "target" : 34962
        },
        {
            "buffer" : 0,
            "byteLength" : 232192,
            "byteOffset" : 1934140,
            "target" : 34962
        },
        {
            "buffer" : 0,
            "byteLength" : 97956,
            "byteOffset" : 2166332,
            "target" : 34963
        }
    ],
    "buffers" : [
        {
            "byteLength" : 2264288,
            "uri" : "data:application/octet-stream;base64,"
        }
    ]
}
