{
    "asset" : {
        "generator" : "Khronos glTF Blender I/O v3.3.32",
        "version" : "2.0"
    },
    "extensionsUsed" : [
        "KHR_materials_unlit"
    ],
    "scene" : 0,
    "scenes" : [
        {
            "name" : "Scene",
            "nodes" : [
                0,
                1,
                2
            ]
        }
    ],
    "nodes" : [
        {
            "name" : "NurbsPath",
            "scale" : [
                0.09356075525283813,
                0.09356075525283813,
                0.09356075525283813
            ],
            "translation" : [
                0,
                0.009959262795746326,
                8.443494880339131e-05
            ]
        },
        {
            "mesh" : 0,
            "name" : "Cube.001",
            "scale" : [
                -0.001230953843332827,
                -0.0031144090462476015,
                -0.001230953843332827
            ],
            "translation" : [
                0,
                0.012529198080301285,
                -0.0056320056319236755
            ]
        },
        {
            "name" : "NurbsPath.001",
            "scale" : [
                0.09356075525283813,
                0.09356075525283813,
                0.09356075525283813
            ],
            "translation" : [
                0,
                0.009959262795746326,
                8.443494880339131e-05
            ]
        }
    ],
    "materials" : [
        {
            "doubleSided" : true,
            "name" : "Material.001",
            "pbrMetallicRoughness" : {
                "baseColorFactor" : [
                    0.7655271887779236,
                    0.8000000715255737,
                    0,
                    1
                ],
                "metallicFactor" : 0,
                "roughnessFactor" : 0.4000000059604645
            }
        },
        {
            "doubleSided" : true,
            "extensions" : {
                "KHR_materials_unlit" : {}
            },
            "name" : "Material.002",
            "pbrMetallicRoughness" : {
                "baseColorFactor" : [
                    0.800000011920929,
                    0.800000011920929,
                    0.800000011920929,
                    1
                ],
                "metallicFactor" : 0,
                "roughnessFactor" : 0.9
            }
        },
        {
            "doubleSided" : true,
            "name" : "Material.003",
            "pbrMetallicRoughness" : {
                "baseColorFactor" : [
                    0.8000000715255737,
                    0.7951796650886536,
                    0,
                    1
                ],
                "metallicFactor" : 0,
                "roughnessFactor" : 0.4000000059604645
            }
        }
    ],
    "meshes" : [
        {
            "name" : "Cube.002",
            "primitives" : [
                {
                    "attributes" : {
                        "POSITION" : 0,
                        "NORMAL" : 1,
                        "TEXCOORD_0" : 2
                    },
                    "indices" : 3,
                    "material" : 0
                },
                {
                    "attributes" : {
                        "POSITION" : 4,
                        "NORMAL" : 5,
                        "TEXCOORD_0" : 6
                    },
                    "indices" : 7,
                    "material" : 1
                },
                {
                    "attributes" : {
                        "POSITION" : 8,
                        "NORMAL" : 9,
                        "TEXCOORD_0" : 10
                    },
                    "indices" : 11,
                    "material" : 2
                }
            ]
        }
    ],
    "accessors" : [
        {
            "bufferView" : 0,
            "componentType" : 5126,
            "count" : 16000,
            "max" : [
                293,
                0.9999999403953552,
                366.12030029296875
            ],
            "min" : [
                -291.1299133300781,
                -1.0000020265579224,
                -1.4053497314453125
            ],
            "type" : "VEC3"
        },
        {
            "bufferView" : 1,
            "componentType" : 5126,
            "count" : 16000,
            "type" : "VEC3"
        },
        {
            "bufferView" : 2,
            "componentType" : 5126,
            "count" : 16000,
            "type" : "VEC2"
        },
        {
            "bufferView" : 3,
            "componentType" : 5123,
            "count" : 27000,
            "type" : "SCALAR"
        },
        {
            "bufferView" : 4,
            "componentType" : 5126,
            "count" : 10004,
            "max" : [
                300.23297119140625,
                1.029569149017334,
                373.388427734375
            ],
            "min" : [
                -298.3547058105469,
                0.6207826137542725,
                -8.673545837402344
            ],
            "type" : "VEC3"
        },
        {
            "bufferView" : 5,
            "componentType" : 5126,
            "count" : 10004,
            "type" : "VEC3"
        },
        {
            "bufferView" : 6,
            "componentType" : 5126,
            "count" : 10004,
            "type" : "VEC2"
        },
        {
            "bufferView" : 7,
            "componentType" : 5123,
            "count" : 15006,
            "type" : "SCALAR"
        },
        {
            "bufferView" : 8,
            "componentType" : 5126,
            "count" : 16000,
            "max" : [
                302.3184814453125,
                1.0000015497207642,
                375.443359375
            ],
            "min" : [
                -300.452880859375,
                -1.0000004768371582,
                -10.728569030761719
            ],
            "type" : "VEC3"
        },
        {
            "bufferView" : 9,
            "componentType" : 5126,
            "count" : 16000,
            "type" : "VEC3"
        },
        {
            "bufferView" : 10,
            "componentType" : 5126,
            "count" : 16000,
            "type" : "VEC2"
        },
        {
            "bufferView" : 11,
            "componentType" : 5123,
            "count" : 27000,
            "type" : "SCALAR"
        }
    ],
    "bufferViews" : [
        {
            "buffer" : 0,
            "byteLength" : 192000,
            "byteOffset" : 0,
            "target" : 34962
        },
        {
            "buffer" : 0,
            "byteLength" : 192000,
            "byteOffset" : 192000,
            "target" : 34962
        },
        {
            "buffer" : 0,
            "byteLength" : 128000,
            "byteOffset" : 384000,
            "target" : 34962
        },
        {
            "buffer" : 0,
            "byteLength" : 54000,
            "byteOffset" : 512000,
            "target" : 34963
        },
        {
            "buffer" : 0,
            "byteLength" : 120048,
            "byteOffset" : 566000,
            "target" : 34962
        },
        {
            "buffer" : 0,
            "byteLength" : 120048,
            "byteOffset" : 686048,
            "target" : 34962
        },
        {
            "buffer" : 0,
            "byteLength" : 80032,
            "byteOffset" : 806096,
            "target" : 34962
        },
        {
            "buffer" : 0,
            "byteLength" : 30012,
            "byteOffset" : 886128,
            "target" : 34963
        },
        {
            "buffer" : 0,
            "byteLength" : 192000,
            "byteOffset" : 916140,
            "target" : 34962
        },
        {
            "buffer" : 0,
            "byteLength" : 192000,
            "byteOffset" : 1108140,
            "target" : 34962
        },
        {
            "buffer" : 0,
            "byteLength" : 128000,
            "byteOffset" : 1300140,
            "target" : 34962
        },
        {
            "buffer" : 0,
            "byteLength" : 54000,
            "byteOffset" : 1428140,
            "target" : 34963
        }
    ],
    "buffers" : [
        {
            "byteLength" : 1482140,
            "uri" : "data:application/octet-stream;base64,"
        }
    ]
}
