{
    "asset" : {
        "generator" : "Khronos glTF Blender I/O v3.3.32",
        "version" : "2.0"
    },
    "scene" : 0,
    "scenes" : [
        {
            "name" : "Scene",
            "nodes" : [
                0
            ]
        }
    ],
    "nodes" : [
        {
            "mesh" : 0,
            "name" : "Cube.002",
            "scale" : [
                0.3359173536300659,
                0.3359173536300659,
                0.3359173536300659
            ],
            "translation" : [
                -0.4113782048225403,
                0.44467058777809143,
                -1.1527156829833984
            ]
        }
    ],
    "materials" : [
        {
            "doubleSided" : true,
            "name" : "Material.007",
            "pbrMetallicRoughness" : {
                "baseColorFactor" : [
                    0.08842655271291733,
                    0.004760802257806063,
                    0.09083817154169083,
                    1
                ],
                "metallicFactor" : 0.800000011920929,
                "roughnessFactor" : 0.4000000059604645
            }
        }
    ],
    "meshes" : [
        {
            "name" : "Cube.004",
            "primitives" : [
                {
                    "attributes" : {
                        "POSITION" : 0,
                        "NORMAL" : 1,
                        "TEXCOORD_0" : 2
                    },
                    "indices" : 3,
                    "material" : 0
                }
            ]
        }
    ],
    "accessors" : [
        {
            "bufferView" : 0,
            "componentType" : 5126,
            "count" : 23106,
            "max" : [
                65.43658447265625,
                1.0000009536743164,
                65.72664642333984
            ],
            "min" : [
                -63.02849578857422,
                -1.9034790992736816,
                -28.03391456604004
            ],
            "type" : "VEC3"
        },
        {
            "bufferView" : 1,
            "componentType" : 5126,
            "count" : 23106,
            "type" : "VEC3"
        },
        {
            "bufferView" : 2,
            "componentType" : 5126,
            "count" : 23106,
            "type" : "VEC2"
        },
        {
            "bufferView" : 3,
            "componentType" : 5123,
            "count" : 23760,
            "type" : "SCALAR"
        }
    ],
    "bufferViews" : [
        {
            "buffer" : 0,
            "byteLength" : 277272,
            "byteOffset" : 0,
            "target" : 34962
        },
        {
            "buffer" : 0,
            "byteLength" : 277272,
            "byteOffset" : 277272,
            "target" : 34962
        },
        {
            "buffer" : 0,
            "byteLength" : 184848,
            "byteOffset" : 554544,
            "target" : 34962
        },
        {
            "buffer" : 0,
            "byteLength" : 47520,
            "byteOffset" : 739392,
            "target" : 34963
        }
    ],
    "buffers" : [
        {
            "byteLength" : 786912,
            "uri" : "data:application/octet-stream;base64,"
        }
    ]
}
