{
    "asset" : {
        "generator" : "Khronos glTF Blender I/O v3.3.32",
        "version" : "2.0"
    },
    "scene" : 0,
    "scenes" : [
        {
            "name" : "Scene",
            "nodes" : [
                0
            ]
        }
    ],
    "nodes" : [
        {
            "mesh" : 0,
            "name" : "ban_2",
            "translation" : [
                -0.00014721465413458645,
                -0.010973118245601654,
                0.0008570551872253418
            ]
        }
    ],
    "materials" : [
        {
            "doubleSided" : true,
            "name" : "col_master_ban",
            "pbrMetallicRoughness" : {}
        },
        {
            "doubleSided" : true,
            "name" : "uv_ban",
            "pbrMetallicRoughness" : {}
        },
        {
            "doubleSided" : true,
            "name" : "Material.002",
            "pbrMetallicRoughness" : {}
        },
        {
            "doubleSided" : true,
            "name" : "Material.005",
            "pbrMetallicRoughness" : {}
        },
        {
            "doubleSided" : true,
            "emissiveFactor" : [
                0.006869434844702482,
                0.06973005086183548,
                0.8000000715255737
            ],
            "name" : "Material.003",
            "pbrMetallicRoughness" : {
                "baseColorFactor" : [
                    0,
                    0,
                    0,
                    1
                ]
            }
        }
    ],
    "meshes" : [
        {
            "name" : "Cylinder",
            "primitives" : [
                {
                    "attributes" : {
                        "POSITION" : 0
                    },
                    "indices" : 1,
                    "material" : 0
                },
                {
                    "attributes" : {
                        "POSITION" : 2
                    },
                    "indices" : 3,
                    "material" : 1
                },
                {
                    "attributes" : {
                        "POSITION" : 4
                    },
                    "indices" : 5,
                    "material" : 2
                },
                {
                    "attributes" : {
                        "POSITION" : 6
                    },
                    "indices" : 7,
                    "material" : 3
                },
                {
                    "attributes" : {
                        "POSITION" : 8
                    },
                    "indices" : 9,
                    "material" : 4
                }
            ]
        }
    ],
    "accessors" : [
        {
            "bufferView" : 0,
            "componentType" : 5126,
            "count" : 5167,
            "max" : [
                1.8752416372299194,
                1.8752923011779785,
                0.5098905563354492
            ],
            "min" : [
                -1.874947190284729,
                -1.8748966455459595,
                -0.6281161308288574
            ],
            "type" : "VEC3"
        },
        {
            "bufferView" : 1,
            "componentType" : 5123,
            "count" : 27264,
            "type" : "SCALAR"
        },
        {
            "bufferView" : 2,
            "componentType" : 5126,
            "count" : 832,
            "max" : [
                1.7756006717681885,
                1.7756508588790894,
                0.46651291847229004
            ],
            "min" : [
                -1.7753058671951294,
                -1.775255560874939,
                0.3717004656791687
            ],
            "type" : "VEC3"
        },
        {
            "bufferView" : 3,
            "componentType" : 5123,
            "count" : 4608,
            "type" : "SCALAR"
        },
        {
            "bufferView" : 4,
            "componentType" : 5126,
            "count" : 576,
            "max" : [
                1.3639253377914429,
                1.3639757633209229,
                0.46148940920829773
            ],
            "min" : [
                -1.3636305332183838,
                -1.3635802268981934,
                0.425189346075058
            ],
            "type" : "VEC3"
        },
        {
            "bufferView" : 5,
            "componentType" : 5123,
            "count" : 3072,
            "type" : "SCALAR"
        },
        {
            "bufferView" : 6,
            "componentType" : 5126,
            "count" : 24961,
            "max" : [
                1.3719708919525146,
                1.3720217943191528,
                0.5664803981781006
            ],
            "min" : [
                -1.3716769218444824,
                -1.3716259002685547,
                -0.30996397137641907
            ],
            "type" : "VEC3"
        },
        {
            "bufferView" : 7,
            "componentType" : 5123,
            "count" : 144768,
            "type" : "SCALAR"
        },
        {
            "bufferView" : 8,
            "componentType" : 5126,
            "count" : 770,
            "max" : [
                0.9180625081062317,
                0.9176280498504639,
                0.15847726166248322
            ],
            "min" : [
                -0.9206051826477051,
                -0.9210396409034729,
                -0.15536826848983765
            ],
            "type" : "VEC3"
        },
        {
            "bufferView" : 9,
            "componentType" : 5123,
            "count" : 4608,
            "type" : "SCALAR"
        }
    ],
    "bufferViews" : [
        {
            "buffer" : 0,
            "byteLength" : 62004,
            "byteOffset" : 0,
            "target" : 34962
        },
        {
            "buffer" : 0,
            "byteLength" : 54528,
            "byteOffset" : 62004,
            "target" : 34963
        },
        {
            "buffer" : 0,
            "byteLength" : 9984,
            "byteOffset" : 116532,
            "target" : 34962
        },
        {
            "buffer" : 0,
            "byteLength" : 9216,
            "byteOffset" : 126516,
            "target" : 34963
        },
        {
            "buffer" : 0,
            "byteLength" : 6912,
            "byteOffset" : 135732,
            "target" : 34962
        },
        {
            "buffer" : 0,
            "byteLength" : 6144,
            "byteOffset" : 142644,
            "target" : 34963
        },
        {
            "buffer" : 0,
            "byteLength" : 299532,
            "byteOffset" : 148788,
            "target" : 34962
        },
        {
            "buffer" : 0,
            "byteLength" : 289536,
            "byteOffset" : 448320,
            "target" : 34963
        },
        {
            "buffer" : 0,
            "byteLength" : 9240,
            "byteOffset" : 737856,
            "target" : 34962
        },
        {
            "buffer" : 0,
            "byteLength" : 9216,
            "byteOffset" : 747096,
            "target" : 34963
        }
    ],
    "buffers" : [
        {
            "byteLength" : 756312,
            "uri" : "data:application/octet-stream;base64,"
        }
    ]
}
